<?xml version="1.0" standalone="no"?>
<!DOCTYPE svg PUBLIC "-//W3C//DTD SVG 20010904//EN"
 "http://www.w3.org/TR/2001/REC-SVG-20010904/DTD/svg10.dtd">
<svg version="1.0" xmlns="http://www.w3.org/2000/svg"
 width="200.000000pt" height="200.000000pt" viewBox="0 0 200.000000 200.000000"
 preserveAspectRatio="xMidYMid meet">
<metadata>
Created by potrace 1.14, written by Peter Selinger 2001-2017
</metadata>
<g transform="translate(0.000000,200.000000) scale(0.100000,-0.100000)"
fill="#000000" stroke="none">
<path d="M0 1000 l0 -1000 1000 0 1000 0 0 1000 0 1000 -1000 0 -1000 0 0
-1000z m1313 839 c6 -9 7 -24 4 -33 -6 -14 -41 -16 -351 -16 -189 0 -351 3
-360 6 -9 3 -16 17 -16 30 l0 24 178 3 c401 7 534 3 545 -14z m261 -278 c25
-28 24 -98 -2 -124 -26 -25 -75 -27 -102 -2 -26 23 -28 100 -3 127 22 25 84
24 107 -1z m-752 -25 c183 -39 318 -165 373 -346 24 -82 30 -239 12 -338 -38
-204 -145 -334 -331 -400 -67 -24 -84 -26 -318 -30 l-248 -4 0 566 0 566 223
0 c153 0 243 -5 289 -14z m758 -691 l0 -425 -60 0 -60 0 0 425 0 425 60 0 60
0 0 -425z m-272 -617 c7 -7 12 -19 12 -28 0 -14 -17 -18 -107 -23 -134 -9
-586 -9 -607 -1 -19 7 -21 50 -3 57 6 3 165 6 353 6 252 1 343 -2 352 -11z"/>
<path d="M448 1434 c-5 -4 -8 -209 -8 -456 l0 -448 128 0 c274 0 419 80 484
267 31 92 33 286 4 377 -40 120 -112 195 -228 236 -51 18 -91 23 -218 27 -85
3 -158 2 -162 -3z"/>
</g>
</svg>
